# 3ds Max Wavefront OBJ Exporter v0.99 - (c)2007 guruware
# File Created: 14.03.2022 21:24:36

mtllib arvoros.mtl

#
# object Box001
#

v  -2.6592 -0.0000 3.3682
v  -2.6592 -0.0000 -3.3682
v  2.6592 -0.0000 -3.3682
v  2.6592 -0.0000 3.3682
v  -10.4371 190.9188 -4.2913
v  -14.6074 190.4603 -1.0229
v  -10.4923 190.9128 4.2913
v  -6.3219 191.3713 1.0229
v  -0.4473 47.8242 4.2864
v  -4.7744 47.7057 1.1965
v  -4.9362 95.4741 3.6093
v  -6.6616 95.3796 -1.4206
v  -9.8620 142.9851 1.5889
v  -8.3512 143.1095 -3.5089
v  3.4651 47.9313 -1.1965
v  1.4253 95.8228 1.4206
v  -3.4267 143.5149 3.5089
v  -0.8620 47.8128 -4.2864
v  -0.3001 95.7282 -3.6093
v  -1.9159 143.6393 -1.5889
v  47.8085 49.0190 19.7047
v  19.4421 48.2441 48.3657
v  -20.8748 47.1429 48.5666
v  -49.5252 46.3603 20.1896
v  -49.7260 46.3548 -20.1423
v  -21.3596 47.1296 -48.8034
v  18.9573 48.2309 -49.0042
v  47.6077 49.0135 -20.6273
v  24.9339 71.5280 -32.9988
v  40.2505 72.1464 -4.6066
v  -5.9565 70.2809 -42.2357
v  -34.3255 69.1356 -26.9066
v  -43.5550 68.7629 4.0089
v  -28.2383 69.3813 32.4010
v  2.6520 70.6284 41.6380
v  31.0210 71.7738 26.3089
v  23.5697 94.6134 -18.0082
v  28.3644 94.8696 5.7101
v  3.4318 93.5371 -31.3844
v  -20.2528 92.2713 -26.5828
v  -33.6098 91.5575 -6.4162
v  -28.8151 91.8137 17.3022
v  -8.6772 92.8900 30.6783
v  15.0073 94.1558 25.8767
v  16.2322 117.2979 -6.5479
v  14.6961 117.1957 9.5114
v  5.9878 116.6163 -18.9922
v  -10.0361 115.5502 -20.5318
v  -22.4530 114.7240 -10.2647
v  -23.9891 114.6218 5.7946
v  -13.7447 115.3034 18.2389
v  2.2792 116.3696 19.7785
v  5.0774 139.5262 -0.3867
v  2.0137 139.2822 7.0714
v  1.9868 139.2801 -7.8336
v  -5.4477 138.6879 -10.9070
v  -12.8710 138.0967 -7.8066
v  -15.9348 137.8527 -0.3486
v  -12.8442 138.0988 7.0983
v  -5.4097 138.6910 10.1717
v  -7.2827 161.3976 -0.3268
v  -40.9483 104.4049 29.8076
v  -51.2305 103.7756 -5.6796
v  -33.4547 104.8636 -38.0571
v  1.9662 107.0315 -48.3585
v  34.2832 109.0095 -30.5495
v  44.5654 109.6389 4.9378
v  26.7896 108.5509 37.3153
v  -8.6313 106.3829 47.6167
v  13.0535 123.9297 34.1036
v  -16.3529 121.8588 36.3108
v  32.2902 125.2844 11.6980
v  30.0885 125.1293 -17.7812
v  7.7382 123.5554 -37.0655
v  -21.6682 121.4845 -34.8584
v  -40.9049 120.1298 -12.4528
v  -38.7032 120.2849 17.0265
v  1.9843 139.2885 27.6296
v  -19.9217 137.5437 24.6882
v  19.5474 140.6874 14.1706
v  22.4796 140.9210 -7.8047
v  9.0630 139.8524 -25.4235
v  -12.8429 138.1075 -28.3649
v  -30.4061 136.7086 -14.9059
v  -33.3382 136.4751 7.0694
v  -5.7048 154.7670 18.9441
v  -19.5806 153.5335 14.0031
v  7.5871 155.9485 12.5876
v  12.5087 156.3860 -1.3429
v  6.1772 155.8232 -14.6872
v  -7.6987 154.5898 -19.6282
v  -20.9905 153.4082 -13.2717
v  -25.9122 152.9707 0.6588
v  -9.6201 170.4999 9.2371
v  -15.8958 169.8839 5.3828
v  -2.4702 171.2016 7.5037
v  1.3657 171.5781 1.1979
v  -0.3595 171.4088 -5.9863
v  -6.6351 170.7929 -9.8407
v  -13.7850 170.0911 -8.1072
v  -17.6209 169.7146 -1.8014
v  -9.7098 186.6002 -0.2485
v  -34.4082 167.5508 3.6314
v  -29.4655 168.0345 -16.2276
v  -11.9948 169.7439 -26.7584
v  7.7699 171.6779 -21.7921
v  18.2506 172.7034 -4.2380
v  13.3079 172.2198 15.6211
v  -4.1628 170.5103 26.1518
v  -23.9274 168.5763 21.1855
v  -8.1379 178.7736 21.1066
v  -23.4036 177.2039 15.3896
v  6.6779 180.2971 14.2978
v  12.3649 180.8819 -1.0484
v  5.5918 180.1854 -15.9423
v  -9.6739 178.6157 -21.6593
v  -24.4897 177.0923 -14.8505
v  -30.1767 176.5075 0.4956
v  -10.9814 187.1282 15.7559
v  -21.8790 185.9534 10.2135
v  0.6208 188.3790 11.9247
v  6.1314 188.9731 0.9640
v  2.3222 188.5624 -10.7055
v  -8.5754 187.3876 -16.2480
v  -20.1777 186.1368 -12.4167
v  -25.6882 185.5427 -1.4560
v  -12.6734 195.5934 10.2992
v  -19.4806 194.8256 5.8137
v  -4.7083 196.4919 8.6270
v  -0.2510 196.9946 1.7767
v  -1.9127 196.8072 -6.2390
v  -8.7199 196.0394 -10.7245
v  -16.6850 195.1410 -9.0523
v  -21.1423 194.6382 -2.2019
v  -13.2237 204.1859 4.9359
v  -16.3563 203.8169 2.3258
v  -9.1757 204.6627 4.5512
v  -6.5835 204.9680 1.3970
v  -6.9656 204.9230 -2.6790
v  -10.0981 204.5541 -5.2891
v  -14.1461 204.0773 -4.9044
v  -16.7383 203.7719 -1.7502
v  -12.6714 212.9183 -0.1383
# 143 vertices

vn -0.5612 -0.5763 0.5941
vn -0.5902 -0.5722 -0.5694
vn 0.5698 -0.5695 -0.5924
vn 0.5986 -0.5647 0.5681
vn 0.0616 0.5778 -0.8139
vn -0.8654 0.4862 -0.1208
vn -0.1759 0.5534 0.8141
vn 0.7473 0.6535 0.1202
vn 0.1694 0.0112 0.9855
vn -0.9855 -0.0329 0.1667
vn -0.4347 -0.0173 0.9004
vn -0.8960 -0.0554 -0.4405
vn -0.8760 -0.0658 0.4779
vn -0.4703 -0.0453 -0.8814
vn 0.9861 0.0210 -0.1647
vn 0.8990 0.0436 0.4357
vn 0.4806 0.0342 0.8763
vn -0.1578 0.0010 -0.9875
vn 0.4438 0.0297 -0.8956
vn 0.8777 0.0779 -0.4728
vn 0.8773 -0.3999 0.2653
vn 0.4379 -0.4087 0.8008
vn -0.2522 -0.4248 0.8695
vn -0.7896 -0.4388 0.4290
vn -0.8572 -0.4426 -0.2634
vn -0.4147 -0.4338 -0.7999
vn 0.2765 -0.4176 -0.8655
vn 0.8108 -0.4035 -0.4240
vn 0.6162 0.3759 -0.6921
vn 0.9207 0.3877 -0.0450
vn -0.0558 0.3543 -0.9335
vn -0.7008 0.3358 -0.6294
vn -0.9427 0.3310 0.0411
vn -0.6408 0.3426 0.6870
vn 0.0301 0.3639 0.9310
vn 0.6777 0.3826 0.6280
vn 0.7772 0.4062 -0.4805
vn 0.8833 0.4124 0.2229
vn 0.2055 0.3801 -0.9018
vn -0.4955 0.3495 -0.7952
vn -0.9160 0.3323 -0.2247
vn -0.8114 0.3384 0.4765
vn -0.2419 0.3643 0.8993
vn 0.4605 0.3950 0.7949
vn 0.8698 0.4356 -0.2318
vn 0.7713 0.4303 0.4689
vn 0.4445 0.4106 -0.7962
vn -0.2538 0.3699 -0.8937
vn -0.8162 0.3375 -0.4689
vn -0.9149 0.3322 0.2295
vn -0.4919 0.3570 0.7941
vn 0.2067 0.3977 0.8939
vn 0.8870 0.4607 0.0329
vn 0.5952 0.4388 0.6732
vn 0.6413 0.4434 -0.6262
vn 0.0034 0.3972 -0.9177
vn -0.6530 0.3491 -0.6722
vn -0.9444 0.3272 -0.0335
vn -0.7004 0.3443 0.6252
vn -0.0627 0.3905 0.9185
vn 1.0000 0.0000 -0.0000
vn -0.6452 -0.4289 0.6323
vn -0.8956 -0.4440 -0.0266
vn -0.6065 -0.4286 -0.6697
vn 0.0517 -0.3917 -0.9186
vn 0.6917 -0.3550 -0.6289
vn 0.9400 -0.3399 0.0282
vn 0.6527 -0.3554 0.6691
vn -0.0033 -0.3922 0.9199
vn 0.3195 0.4933 0.8091
vn -0.3544 0.4541 0.8174
vn 0.7902 0.5207 0.3233
vn 0.7777 0.5198 -0.3537
vn 0.2908 0.4913 -0.8210
vn -0.3810 0.4523 -0.8064
vn -0.8454 0.4255 -0.3228
vn -0.8351 0.4262 0.3479
vn 0.1444 0.4945 0.8571
vn -0.5123 0.4493 0.7318
vn 0.6980 0.5331 0.4781
vn 0.8201 0.5421 -0.1831
vn 0.4392 0.5161 -0.7354
vn -0.2179 0.4709 -0.8549
vn -0.7658 0.4329 -0.4756
vn -0.8876 0.4240 0.1799
vn -0.0348 0.4905 0.8708
vn -0.6494 0.4415 0.6191
vn 0.5782 0.5402 0.6115
vn 0.8276 0.5613 -0.0079
vn 0.5662 0.5412 -0.6217
vn -0.0500 0.4921 -0.8691
vn -0.6588 0.4428 -0.6082
vn -0.9066 0.4219 0.0070
vn -0.2117 0.4813 0.8506
vn -0.7613 0.4316 0.4839
vn 0.4360 0.5413 0.7190
vn 0.8005 0.5762 0.1650
vn 0.6671 0.5655 -0.4849
vn 0.1159 0.5156 -0.8490
vn -0.5291 0.4558 -0.7157
vn -0.8920 0.4211 -0.1644
vn -0.8547 -0.4882 0.1768
vn -0.7173 -0.4747 -0.5100
vn -0.1367 -0.4194 -0.8975
vn 0.5460 -0.3546 -0.7590
vn 0.9314 -0.3183 -0.1768
vn 0.7945 -0.3317 0.5086
vn 0.2153 -0.3870 0.8966
vn -0.4679 -0.4518 0.7595
vn -0.0496 0.5108 0.8583
vn -0.6527 0.4545 0.6062
vn 0.5555 0.5686 0.6067
vn 0.8047 0.5937 -0.0024
vn 0.5507 0.5711 -0.6087
vn -0.0543 0.5146 -0.8557
vn -0.6543 0.4574 -0.6022
vn -0.9016 0.4325 0.0018
vn -0.1436 0.5042 0.8516
vn -0.7149 0.4474 0.5374
vn 0.4827 0.5680 0.6666
vn 0.7942 0.6010 0.0895
vn 0.6071 0.5838 -0.5391
vn 0.0336 0.5268 -0.8493
vn -0.5887 0.4635 -0.6623
vn -0.8981 0.4307 -0.0891
vn -0.2359 0.4962 0.8355
vn -0.7695 0.4399 0.4629
vn 0.4044 0.5655 0.7188
vn 0.7742 0.6069 0.1798
vn 0.6555 0.5960 -0.4637
vn 0.1200 0.5395 -0.8334
vn -0.5174 0.4706 -0.7147
vn -0.8852 0.4294 -0.1787
vn -0.3257 0.4869 0.8104
vn -0.8161 0.4323 0.3836
vn 0.3216 0.5610 0.7628
vn 0.7450 0.6110 0.2675
vn 0.6956 0.6075 -0.3835
vn 0.2039 0.5527 -0.8081
vn -0.4411 0.4788 -0.7590
vn -0.8632 0.4290 -0.2662
# 141 vertex normals

vt 1.0000 0.0000 0.0000
vt 1.0000 1.0000 0.0000
vt 0.0000 1.0000 0.0000
vt 0.0000 0.0000 0.0000
vt 1.0000 0.2500 0.0000
vt 0.0000 0.2500 0.0000
vt 1.0000 0.5000 0.0000
vt 0.0000 0.5000 0.0000
vt 1.0000 0.7500 0.0000
vt 0.0000 0.7500 0.0000
vt 0.4786 0.0000 0.4142
vt 0.2197 0.0000 -0.4142
vt 0.1250 0.0000 -1.0000
vt 0.2500 0.0000 -1.0000
vt 0.5214 0.0000 -0.4142
vt 0.7803 0.0000 0.4142
vt 0.8750 0.0000 1.0000
vt 0.7500 0.0000 1.0000
vt 0.8750 0.2000 0.8000
vt 0.7500 0.2000 0.8000
vt -0.1250 0.0000 1.0000
vt 0.0000 0.0000 1.0000
vt 0.0000 0.2000 0.8000
vt -0.1250 0.2000 0.8000
vt 0.1250 0.0000 1.0000
vt 0.1250 0.2000 0.8000
vt 0.2500 0.0000 1.0000
vt 0.2500 0.2000 0.8000
vt 0.3750 0.0000 1.0000
vt 0.3750 0.2000 0.8000
vt 0.5000 0.0000 1.0000
vt 0.5000 0.2000 0.8000
vt 0.6250 0.0000 1.0000
vt 0.6250 0.2000 0.8000
vt 0.8750 0.4000 0.6000
vt 0.7500 0.4000 0.6000
vt 0.0000 0.4000 0.6000
vt -0.1250 0.4000 0.6000
vt 0.1250 0.4000 0.6000
vt 0.2500 0.4000 0.6000
vt 0.3750 0.4000 0.6000
vt 0.5000 0.4000 0.6000
vt 0.6250 0.4000 0.6000
vt 0.8750 0.6000 0.4000
vt 0.7500 0.6000 0.4000
vt 0.0000 0.6000 0.4000
vt -0.1250 0.6000 0.4000
vt 0.1250 0.6000 0.4000
vt 0.2500 0.6000 0.4000
vt 0.3750 0.6000 0.4000
vt 0.5000 0.6000 0.4000
vt 0.6250 0.6000 0.4000
vt 0.8750 0.8000 0.2000
vt 0.7500 0.8000 0.2000
vt 0.0000 0.8000 0.2000
vt -0.1250 0.8000 0.2000
vt 0.1250 0.8000 0.2000
vt 0.2500 0.8000 0.2000
vt 0.3750 0.8000 0.2000
vt 0.5000 0.8000 0.2000
vt 0.6250 0.8000 0.2000
vt 0.5000 1.0000 0.0000
# 62 texture coords

o Box001
g Box001
usemtl wire_027177148
s 2
f 1/1/1 2/2/2 3/3/3 4/4/4 
s 4
f 5/4/5 6/1/6 7/2/7 8/3/8 
s 8
f 1/4/1 4/1/4 9/5/9 10/6/10 
f 10/6/10 9/5/9 11/7/11 12/8/12 
f 12/8/12 11/7/11 13/9/13 14/10/14 
f 14/10/14 13/9/13 6/2/6 5/3/5 
s 16
f 4/4/4 3/1/3 15/5/15 9/6/9 
f 9/6/9 15/5/15 16/7/16 11/8/11 
f 11/8/11 16/7/16 17/9/17 13/10/13 
f 13/10/13 17/9/17 7/2/7 6/3/6 
s 32
f 3/4/3 2/1/2 18/5/18 15/6/15 
f 15/6/15 18/5/18 19/7/19 16/8/16 
f 16/8/16 19/7/19 20/9/20 17/10/17 
f 17/10/17 20/9/20 8/2/8 7/3/7 
s 64
f 2/4/2 1/1/1 10/5/10 18/6/18 
f 18/6/18 10/5/10 12/7/12 19/8/19 
f 19/8/19 12/7/12 14/9/14 20/10/20 
f 20/10/20 14/9/14 5/2/5 8/3/8 
s 1
f 21/11/21 22/12/22 23/13/23 24/14/24 25/15/25 26/16/26 27/17/27 28/18/28 
s 8
f 28/18/28 27/17/27 29/19/29 30/20/30 
f 27/21/27 26/22/26 31/23/31 29/24/29 
f 26/22/26 25/25/25 32/26/32 31/23/31 
f 25/25/25 24/27/24 33/28/33 32/26/32 
f 24/27/24 23/29/23 34/30/34 33/28/33 
f 23/29/23 22/31/22 35/32/35 34/30/34 
f 22/31/22 21/33/21 36/34/36 35/32/35 
f 21/33/21 28/18/28 30/20/30 36/34/36 
f 30/20/30 29/19/29 37/35/37 38/36/38 
f 29/24/29 31/23/31 39/37/39 37/38/37 
f 31/23/31 32/26/32 40/39/40 39/37/39 
f 32/26/32 33/28/33 41/40/41 40/39/40 
f 33/28/33 34/30/34 42/41/42 41/40/41 
f 34/30/34 35/32/35 43/42/43 42/41/42 
f 35/32/35 36/34/36 44/43/44 43/42/43 
f 36/34/36 30/20/30 38/36/38 44/43/44 
f 38/36/38 37/35/37 45/44/45 46/45/46 
f 37/38/37 39/37/39 47/46/47 45/47/45 
f 39/37/39 40/39/40 48/48/48 47/46/47 
f 40/39/40 41/40/41 49/49/49 48/48/48 
f 41/40/41 42/41/42 50/50/50 49/49/49 
f 42/41/42 43/42/43 51/51/51 50/50/50 
f 43/42/43 44/43/44 52/52/52 51/51/51 
f 44/43/44 38/36/38 46/45/46 52/52/52 
f 46/45/46 45/44/45 53/53/53 54/54/54 
f 45/47/45 47/46/47 55/55/55 53/56/53 
f 47/46/47 48/48/48 56/57/56 55/55/55 
f 48/48/48 49/49/49 57/58/57 56/57/56 
f 49/49/49 50/50/50 58/59/58 57/58/57 
f 50/50/50 51/51/51 59/60/59 58/59/58 
f 51/51/51 52/52/52 60/61/60 59/60/59 
f 52/52/52 46/45/46 54/54/54 60/61/60 
f 54/54/54 53/53/53 61/62/61 61/62/61 
f 53/56/53 55/55/55 61/62/61 61/62/61 
f 55/55/55 56/57/56 61/62/61 61/62/61 
f 56/57/56 57/58/57 61/62/61 61/62/61 
f 57/58/57 58/59/58 61/62/61 61/62/61 
f 58/59/58 59/60/59 61/62/61 61/62/61 
f 59/60/59 60/61/60 61/62/61 61/62/61 
f 60/61/60 54/54/54 61/62/61 61/62/61 
s 1
f 61/62/61 61/62/61 61/62/61 61/62/61 61/62/61 61/62/61 61/62/61 61/62/61 
f 62/11/62 63/12/63 64/13/64 65/14/65 66/15/66 67/16/67 68/17/68 69/18/69 
s 8
f 69/18/69 68/17/68 70/19/70 71/20/71 
f 68/21/68 67/22/67 72/23/72 70/24/70 
f 67/22/67 66/25/66 73/26/73 72/23/72 
f 66/25/66 65/27/65 74/28/74 73/26/73 
f 65/27/65 64/29/64 75/30/75 74/28/74 
f 64/29/64 63/31/63 76/32/76 75/30/75 
f 63/31/63 62/33/62 77/34/77 76/32/76 
f 62/33/62 69/18/69 71/20/71 77/34/77 
f 71/20/71 70/19/70 78/35/78 79/36/79 
f 70/24/70 72/23/72 80/37/80 78/38/78 
f 72/23/72 73/26/73 81/39/81 80/37/80 
f 73/26/73 74/28/74 82/40/82 81/39/81 
f 74/28/74 75/30/75 83/41/83 82/40/82 
f 75/30/75 76/32/76 84/42/84 83/41/83 
f 76/32/76 77/34/77 85/43/85 84/42/84 
f 77/34/77 71/20/71 79/36/79 85/43/85 
f 79/36/79 78/35/78 86/44/86 87/45/87 
f 78/38/78 80/37/80 88/46/88 86/47/86 
f 80/37/80 81/39/81 89/48/89 88/46/88 
f 81/39/81 82/40/82 90/49/90 89/48/89 
f 82/40/82 83/41/83 91/50/91 90/49/90 
f 83/41/83 84/42/84 92/51/92 91/50/91 
f 84/42/84 85/43/85 93/52/93 92/51/92 
f 85/43/85 79/36/79 87/45/87 93/52/93 
f 87/45/87 86/44/86 94/53/94 95/54/95 
f 86/47/86 88/46/88 96/55/96 94/56/94 
f 88/46/88 89/48/89 97/57/97 96/55/96 
f 89/48/89 90/49/90 98/58/98 97/57/97 
f 90/49/90 91/50/91 99/59/99 98/58/98 
f 91/50/91 92/51/92 100/60/100 99/59/99 
f 92/51/92 93/52/93 101/61/101 100/60/100 
f 93/52/93 87/45/87 95/54/95 101/61/101 
f 95/54/95 94/53/94 102/62/61 102/62/61 
f 94/56/94 96/55/96 102/62/61 102/62/61 
f 96/55/96 97/57/97 102/62/61 102/62/61 
f 97/57/97 98/58/98 102/62/61 102/62/61 
f 98/58/98 99/59/99 102/62/61 102/62/61 
f 99/59/99 100/60/100 102/62/61 102/62/61 
f 100/60/100 101/61/101 102/62/61 102/62/61 
f 101/61/101 95/54/95 102/62/61 102/62/61 
s 1
f 102/62/61 102/62/61 102/62/61 102/62/61 102/62/61 102/62/61 102/62/61 102/62/61 
f 103/11/102 104/12/103 105/13/104 106/14/105 107/15/106 108/16/107 109/17/108 110/18/109 
s 8
f 110/18/109 109/17/108 111/19/110 112/20/111 
f 109/21/108 108/22/107 113/23/112 111/24/110 
f 108/22/107 107/25/106 114/26/113 113/23/112 
f 107/25/106 106/27/105 115/28/114 114/26/113 
f 106/27/105 105/29/104 116/30/115 115/28/114 
f 105/29/104 104/31/103 117/32/116 116/30/115 
f 104/31/103 103/33/102 118/34/117 117/32/116 
f 103/33/102 110/18/109 112/20/111 118/34/117 
f 112/20/111 111/19/110 119/35/118 120/36/119 
f 111/24/110 113/23/112 121/37/120 119/38/118 
f 113/23/112 114/26/113 122/39/121 121/37/120 
f 114/26/113 115/28/114 123/40/122 122/39/121 
f 115/28/114 116/30/115 124/41/123 123/40/122 
f 116/30/115 117/32/116 125/42/124 124/41/123 
f 117/32/116 118/34/117 126/43/125 125/42/124 
f 118/34/117 112/20/111 120/36/119 126/43/125 
f 120/36/119 119/35/118 127/44/126 128/45/127 
f 119/38/118 121/37/120 129/46/128 127/47/126 
f 121/37/120 122/39/121 130/48/129 129/46/128 
f 122/39/121 123/40/122 131/49/130 130/48/129 
f 123/40/122 124/41/123 132/50/131 131/49/130 
f 124/41/123 125/42/124 133/51/132 132/50/131 
f 125/42/124 126/43/125 134/52/133 133/51/132 
f 126/43/125 120/36/119 128/45/127 134/52/133 
f 128/45/127 127/44/126 135/53/134 136/54/135 
f 127/47/126 129/46/128 137/55/136 135/56/134 
f 129/46/128 130/48/129 138/57/137 137/55/136 
f 130/48/129 131/49/130 139/58/138 138/57/137 
f 131/49/130 132/50/131 140/59/139 139/58/138 
f 132/50/131 133/51/132 141/60/140 140/59/139 
f 133/51/132 134/52/133 142/61/141 141/60/140 
f 134/52/133 128/45/127 136/54/135 142/61/141 
f 136/54/135 135/53/134 143/62/61 143/62/61 
f 135/56/134 137/55/136 143/62/61 143/62/61 
f 137/55/136 138/57/137 143/62/61 143/62/61 
f 138/57/137 139/58/138 143/62/61 143/62/61 
f 139/58/138 140/59/139 143/62/61 143/62/61 
f 140/59/139 141/60/140 143/62/61 143/62/61 
f 141/60/140 142/61/141 143/62/61 143/62/61 
f 142/61/141 136/54/135 143/62/61 143/62/61 
s 1
f 143/62/61 143/62/61 143/62/61 143/62/61 143/62/61 143/62/61 143/62/61 143/62/61 
# 144 polygons

